<mxfile host="app.diagrams.net" modified="2022-06-13T12:12:37.361Z" agent="5.0 (Windows NT 10.0; WOW64) AppleWebKit/537.36 (KHTML, like Gecko) Chrome/86.0.4240.198 Safari/537.36" etag="DL-Qs67H_CpM-3L-aVcZ" version="19.0.3" type="github">
  <diagram id="6a731a19-8d31-9384-78a2-239565b7b9f0" name="Page-1">
    <mxGraphModel dx="3726" dy="1248" grid="1" gridSize="10" guides="1" tooltips="1" connect="1" arrows="1" fold="1" page="1" pageScale="1" pageWidth="1169" pageHeight="827" background="none" math="0" shadow="0">
      <root>
        <mxCell id="0" />
        <mxCell id="1" parent="0" />
        <mxCell id="1350" value="&lt;font style=&quot;font-size: 18px&quot;&gt;DeepLearning&lt;br&gt;Framework&lt;/font&gt;" style="ellipse;whiteSpace=wrap;html=1;shadow=0;fontFamily=Helvetica;fontSize=20;fontColor=#FFFFFF;align=center;strokeWidth=3;fillColor=#1699D3;strokeColor=none;" parent="1" vertex="1">
          <mxGeometry x="525" y="240" width="170" height="170" as="geometry" />
        </mxCell>
        <mxCell id="1351" value="DeepLearning&lt;br&gt;Hardware" style="ellipse;whiteSpace=wrap;html=1;shadow=0;fontFamily=Helvetica;fontSize=20;fontColor=#FFFFFF;align=center;strokeWidth=3;fillColor=#F08705;strokeColor=none;gradientColor=none;" parent="1" vertex="1">
          <mxGeometry x="1103.5" y="371.5" width="208.5" height="208.5" as="geometry" />
        </mxCell>
        <mxCell id="1352" value="Hardware&lt;br&gt;Specific&lt;br&gt;DL Codegen&lt;br&gt;（FPGA）" style="ellipse;whiteSpace=wrap;html=1;shadow=0;fontFamily=Helvetica;fontSize=20;fontColor=#FFFFFF;align=center;strokeWidth=3;fillColor=#E85642;strokeColor=none;" parent="1" vertex="1">
          <mxGeometry x="1640" y="295.5" width="224.5" height="224.5" as="geometry" />
        </mxCell>
        <mxCell id="1353" value="Fish" style="ellipse;whiteSpace=wrap;html=1;shadow=0;fontFamily=Helvetica;fontSize=20;fontColor=#FFFFFF;align=center;strokeWidth=3;fillColor=#1699D3;strokeColor=none;" parent="1" vertex="1">
          <mxGeometry x="1936" y="806.5" width="120" height="120" as="geometry" />
        </mxCell>
        <mxCell id="1354" value="Bacteria" style="ellipse;whiteSpace=wrap;html=1;shadow=0;fontFamily=Helvetica;fontSize=20;fontColor=#FFFFFF;align=center;strokeWidth=3;fillColor=#736ca8;strokeColor=none;" parent="1" vertex="1">
          <mxGeometry x="1711" y="1171.5" width="120" height="120" as="geometry" />
        </mxCell>
        <mxCell id="1355" value="Fungi" style="ellipse;whiteSpace=wrap;html=1;shadow=0;fontFamily=Helvetica;fontSize=20;fontColor=#FFFFFF;align=center;strokeWidth=3;fillColor=#F08705;strokeColor=none;" parent="1" vertex="1">
          <mxGeometry x="1163.5" y="1309" width="120" height="120" as="geometry" />
        </mxCell>
        <mxCell id="1356" value="Flower" style="ellipse;whiteSpace=wrap;html=1;shadow=0;fontFamily=Helvetica;fontSize=20;fontColor=#FFFFFF;align=center;strokeWidth=3;fillColor=#E85642;strokeColor=none;" parent="1" vertex="1">
          <mxGeometry x="558.5" y="1171.5" width="120" height="120" as="geometry" />
        </mxCell>
        <mxCell id="1358" value="&lt;i&gt;Theano&lt;/i&gt;" style="rounded=1;fillColor=#64BBE2;strokeColor=none;strokeWidth=3;shadow=0;html=1;fontColor=#FFFFFF;" parent="1" vertex="1">
          <mxGeometry x="348.5" y="416.5" width="130" height="40" as="geometry" />
        </mxCell>
        <mxCell id="1359" style="endArrow=none;strokeWidth=6;strokeColor=#1699D3;html=1;" parent="1" source="1515" target="1350" edge="1">
          <mxGeometry relative="1" as="geometry" />
        </mxCell>
        <mxCell id="1360" style="endArrow=none;strokeWidth=6;strokeColor=#f08705;html=1;" parent="1" source="1515" target="1351" edge="1">
          <mxGeometry relative="1" as="geometry" />
        </mxCell>
        <mxCell id="1361" style="endArrow=none;strokeWidth=6;strokeColor=#E85642;html=1;" parent="1" source="1515" target="1352" edge="1">
          <mxGeometry relative="1" as="geometry" />
        </mxCell>
        <mxCell id="1362" style="endArrow=none;strokeWidth=6;strokeColor=#1699D3;html=1;" parent="1" source="1515" target="1353" edge="1">
          <mxGeometry relative="1" as="geometry" />
        </mxCell>
        <mxCell id="1363" style="endArrow=none;strokeWidth=6;strokeColor=#736CA8;html=1;" parent="1" source="1515" target="1516" edge="1">
          <mxGeometry relative="1" as="geometry" />
        </mxCell>
        <mxCell id="1364" style="endArrow=none;strokeWidth=6;strokeColor=#736ca8;html=1;" parent="1" source="1515" target="1354" edge="1">
          <mxGeometry relative="1" as="geometry" />
        </mxCell>
        <mxCell id="1365" value="" style="edgeStyle=none;endArrow=none;strokeWidth=6;strokeColor=#F08705;html=1;" parent="1" source="1515" target="1355" edge="1">
          <mxGeometry x="181" y="226.5" width="100" height="100" as="geometry">
            <mxPoint x="181" y="326.5" as="sourcePoint" />
            <mxPoint x="281" y="226.5" as="targetPoint" />
          </mxGeometry>
        </mxCell>
        <mxCell id="1366" value="" style="edgeStyle=none;endArrow=none;strokeWidth=6;strokeColor=#E85642;html=1;" parent="1" source="1515" target="1356" edge="1">
          <mxGeometry x="181" y="226.5" width="100" height="100" as="geometry">
            <mxPoint x="181" y="326.5" as="sourcePoint" />
            <mxPoint x="281" y="226.5" as="targetPoint" />
          </mxGeometry>
        </mxCell>
        <mxCell id="1367" value="&lt;i&gt;Deeplearning4j&lt;/i&gt;" style="rounded=1;fillColor=#64BBE2;strokeColor=none;strokeWidth=3;shadow=0;html=1;fontColor=#FFFFFF;" parent="1" vertex="1">
          <mxGeometry x="418.5" y="466.5" width="130" height="40" as="geometry" />
        </mxCell>
        <mxCell id="1368" value="ONNX" style="rounded=1;fillColor=#64BBE2;strokeColor=none;strokeWidth=3;shadow=0;html=1;fontColor=#FFFFFF;" parent="1" vertex="1">
          <mxGeometry x="318.5" y="346.5" width="130" height="40" as="geometry" />
        </mxCell>
        <mxCell id="1369" value="CNTK" style="rounded=1;fillColor=#64BBE2;strokeColor=none;strokeWidth=3;shadow=0;html=1;fontColor=#FFFFFF;" parent="1" vertex="1">
          <mxGeometry x="318.5" y="271.5" width="130" height="40" as="geometry" />
        </mxCell>
        <mxCell id="1370" value="Caffe/Caffe2" style="rounded=1;fillColor=#64BBE2;strokeColor=none;strokeWidth=3;shadow=0;html=1;fontColor=#FFFFFF;" parent="1" vertex="1">
          <mxGeometry x="358.5" y="206.5" width="130" height="40" as="geometry" />
        </mxCell>
        <mxCell id="1371" value="Keras" style="rounded=1;fillColor=#64BBE2;strokeColor=none;strokeWidth=3;shadow=0;html=1;fontColor=#FFFFFF;" parent="1" vertex="1">
          <mxGeometry x="408.5" y="146.5" width="130" height="40" as="geometry" />
        </mxCell>
        <mxCell id="1372" value="Tensorflow" style="rounded=1;fillColor=#64BBE2;strokeColor=none;strokeWidth=3;shadow=0;html=1;fontColor=#FFFFFF;" parent="1" vertex="1">
          <mxGeometry x="488.5" y="86.5" width="130" height="40" as="geometry" />
        </mxCell>
        <mxCell id="1373" value="Pytorch" style="rounded=1;fillColor=#64BBE2;strokeColor=none;strokeWidth=3;shadow=0;html=1;fontColor=#FFFFFF;" parent="1" vertex="1">
          <mxGeometry x="608.5" y="146.5" width="130" height="40" as="geometry" />
        </mxCell>
        <mxCell id="1374" value="MXNet/Gluoen" style="rounded=1;fillColor=#64BBE2;strokeColor=none;strokeWidth=3;shadow=0;html=1;fontColor=#FFFFFF;" parent="1" vertex="1">
          <mxGeometry x="663.5" y="206.5" width="130" height="40" as="geometry" />
        </mxCell>
        <mxCell id="1375" value="PaddlePaddle" style="rounded=1;fillColor=#64BBE2;strokeColor=none;strokeWidth=3;shadow=0;html=1;fontColor=#FFFFFF;" parent="1" vertex="1">
          <mxGeometry x="698.5" y="266.5" width="130" height="40" as="geometry" />
        </mxCell>
        <mxCell id="1376" value="&lt;i&gt;Chainer&lt;/i&gt;" style="rounded=1;fillColor=#64BBE2;strokeColor=none;strokeWidth=3;shadow=0;html=1;fontColor=#FFFFFF;" parent="1" vertex="1">
          <mxGeometry x="713.5" y="346.5" width="130" height="40" as="geometry" />
        </mxCell>
        <mxCell id="1377" value="" style="edgeStyle=none;endArrow=none;strokeWidth=3;strokeColor=#64BBE2;html=1;" parent="1" source="1350" target="1376" edge="1">
          <mxGeometry x="-221.5" y="56.5" width="100" height="100" as="geometry">
            <mxPoint x="-221.5" y="156.5" as="sourcePoint" />
            <mxPoint x="-121.5" y="56.5" as="targetPoint" />
          </mxGeometry>
        </mxCell>
        <mxCell id="1378" value="" style="edgeStyle=none;endArrow=none;strokeWidth=3;strokeColor=#64BBE2;html=1;" parent="1" source="1350" target="1367" edge="1">
          <mxGeometry x="-221.5" y="56.5" width="100" height="100" as="geometry">
            <mxPoint x="-221.5" y="156.5" as="sourcePoint" />
            <mxPoint x="-121.5" y="56.5" as="targetPoint" />
          </mxGeometry>
        </mxCell>
        <mxCell id="1379" value="" style="edgeStyle=none;endArrow=none;strokeWidth=3;strokeColor=#64BBE2;html=1;" parent="1" source="1350" target="1358" edge="1">
          <mxGeometry x="-221.5" y="56.5" width="100" height="100" as="geometry">
            <mxPoint x="-221.5" y="156.5" as="sourcePoint" />
            <mxPoint x="-121.5" y="56.5" as="targetPoint" />
          </mxGeometry>
        </mxCell>
        <mxCell id="1380" value="" style="edgeStyle=none;endArrow=none;strokeWidth=3;strokeColor=#64BBE2;html=1;" parent="1" source="1350" target="1368" edge="1">
          <mxGeometry x="-221.5" y="56.5" width="100" height="100" as="geometry">
            <mxPoint x="-221.5" y="156.5" as="sourcePoint" />
            <mxPoint x="-121.5" y="56.5" as="targetPoint" />
          </mxGeometry>
        </mxCell>
        <mxCell id="1381" value="" style="edgeStyle=none;endArrow=none;strokeWidth=3;strokeColor=#64BBE2;html=1;" parent="1" source="1350" target="1369" edge="1">
          <mxGeometry x="-221.5" y="56.5" width="100" height="100" as="geometry">
            <mxPoint x="-221.5" y="156.5" as="sourcePoint" />
            <mxPoint x="-121.5" y="56.5" as="targetPoint" />
          </mxGeometry>
        </mxCell>
        <mxCell id="1382" value="" style="edgeStyle=none;endArrow=none;strokeWidth=3;strokeColor=#64BBE2;html=1;" parent="1" source="1350" target="1370" edge="1">
          <mxGeometry x="-221.5" y="56.5" width="100" height="100" as="geometry">
            <mxPoint x="-221.5" y="156.5" as="sourcePoint" />
            <mxPoint x="-121.5" y="56.5" as="targetPoint" />
          </mxGeometry>
        </mxCell>
        <mxCell id="1383" value="" style="edgeStyle=none;endArrow=none;strokeWidth=3;strokeColor=#64BBE2;html=1;" parent="1" source="1350" target="1371" edge="1">
          <mxGeometry x="-221.5" y="56.5" width="100" height="100" as="geometry">
            <mxPoint x="-221.5" y="156.5" as="sourcePoint" />
            <mxPoint x="-121.5" y="56.5" as="targetPoint" />
          </mxGeometry>
        </mxCell>
        <mxCell id="1384" value="" style="edgeStyle=none;endArrow=none;strokeWidth=3;strokeColor=#64BBE2;html=1;" parent="1" source="1350" target="1372" edge="1">
          <mxGeometry x="-221.5" y="56.5" width="100" height="100" as="geometry">
            <mxPoint x="-221.5" y="156.5" as="sourcePoint" />
            <mxPoint x="-121.5" y="56.5" as="targetPoint" />
          </mxGeometry>
        </mxCell>
        <mxCell id="1385" value="" style="edgeStyle=none;endArrow=none;strokeWidth=3;strokeColor=#64BBE2;html=1;" parent="1" source="1350" target="1373" edge="1">
          <mxGeometry x="-221.5" y="56.5" width="100" height="100" as="geometry">
            <mxPoint x="-221.5" y="156.5" as="sourcePoint" />
            <mxPoint x="-121.5" y="56.5" as="targetPoint" />
          </mxGeometry>
        </mxCell>
        <mxCell id="1386" value="" style="edgeStyle=none;endArrow=none;strokeWidth=3;strokeColor=#64BBE2;html=1;" parent="1" source="1350" target="1374" edge="1">
          <mxGeometry x="-221.5" y="56.5" width="100" height="100" as="geometry">
            <mxPoint x="-221.5" y="156.5" as="sourcePoint" />
            <mxPoint x="-121.5" y="56.5" as="targetPoint" />
          </mxGeometry>
        </mxCell>
        <mxCell id="1387" value="" style="edgeStyle=none;endArrow=none;strokeWidth=3;strokeColor=#64BBE2;html=1;" parent="1" source="1350" target="1375" edge="1">
          <mxGeometry x="-221.5" y="56.5" width="100" height="100" as="geometry">
            <mxPoint x="-221.5" y="156.5" as="sourcePoint" />
            <mxPoint x="-121.5" y="56.5" as="targetPoint" />
          </mxGeometry>
        </mxCell>
        <mxCell id="1389" value="IBM Truenorth" style="rounded=1;fillColor=#f5af58;strokeColor=none;strokeWidth=3;shadow=0;html=1;fontColor=#FFFFFF;" parent="1" vertex="1">
          <mxGeometry x="1043.5" y="120" width="120" height="40" as="geometry" />
        </mxCell>
        <mxCell id="1390" value="GPU" style="rounded=1;fillColor=#f5af58;strokeColor=none;strokeWidth=3;shadow=0;html=1;fontColor=#FFFFFF;" parent="1" vertex="1">
          <mxGeometry x="1169" y="206.5" width="120" height="40" as="geometry" />
        </mxCell>
        <mxCell id="1391" value="NeuroMophinic &lt;br&gt;Hardware" style="rounded=1;fillColor=#f5af58;strokeColor=none;strokeWidth=3;shadow=0;html=1;fontColor=#FFFFFF;" parent="1" vertex="1">
          <mxGeometry x="980" y="320" width="120" height="40" as="geometry" />
        </mxCell>
        <mxCell id="1392" value="General-purpose&lt;br&gt;Hardware" style="rounded=1;fillColor=#f5af58;strokeColor=none;strokeWidth=3;shadow=0;html=1;fontColor=#FFFFFF;" parent="1" vertex="1">
          <mxGeometry x="1163.5" y="306.5" width="120" height="40" as="geometry" />
        </mxCell>
        <mxCell id="1393" value="Dedicate &lt;br&gt;Hardware" style="rounded=1;fillColor=#f5af58;strokeColor=none;strokeWidth=3;shadow=0;html=1;fontColor=#FFFFFF;" parent="1" vertex="1">
          <mxGeometry x="1320" y="320" width="120" height="40" as="geometry" />
        </mxCell>
        <mxCell id="1394" value="TPU" style="rounded=1;fillColor=#f5af58;strokeColor=none;strokeWidth=3;shadow=0;html=1;fontColor=#FFFFFF;" parent="1" vertex="1">
          <mxGeometry x="1440" y="246.5" width="120" height="40" as="geometry" />
        </mxCell>
        <mxCell id="1395" value="Intel Loihi" style="rounded=1;fillColor=#f5af58;strokeColor=none;strokeWidth=3;shadow=0;html=1;fontColor=#FFFFFF;" parent="1" vertex="1">
          <mxGeometry x="902.5" y="120" width="120" height="40" as="geometry" />
        </mxCell>
        <mxCell id="1401" value="" style="edgeStyle=none;endArrow=none;strokeWidth=3;strokeColor=#F5AF58;html=1;" parent="1" source="1391" target="1389" edge="1">
          <mxGeometry x="3.5" y="21.5" width="100" height="100" as="geometry">
            <mxPoint x="3.5" y="121.5" as="sourcePoint" />
            <mxPoint x="103.5" y="21.5" as="targetPoint" />
          </mxGeometry>
        </mxCell>
        <mxCell id="1403" value="" style="edgeStyle=none;endArrow=none;strokeWidth=3;strokeColor=#F5AF58;html=1;" parent="1" source="1351" target="1391" edge="1">
          <mxGeometry x="3.5" y="21.5" width="100" height="100" as="geometry">
            <mxPoint x="3.5" y="121.5" as="sourcePoint" />
            <mxPoint x="103.5" y="21.5" as="targetPoint" />
          </mxGeometry>
        </mxCell>
        <mxCell id="1404" value="" style="edgeStyle=none;endArrow=none;strokeWidth=3;strokeColor=#F5AF58;html=1;" parent="1" source="1351" target="1392" edge="1">
          <mxGeometry x="3.5" y="21.5" width="100" height="100" as="geometry">
            <mxPoint x="3.5" y="121.5" as="sourcePoint" />
            <mxPoint x="103.5" y="21.5" as="targetPoint" />
          </mxGeometry>
        </mxCell>
        <mxCell id="1405" value="" style="edgeStyle=none;endArrow=none;strokeWidth=3;strokeColor=#F5AF58;html=1;" parent="1" source="1351" target="1393" edge="1">
          <mxGeometry x="3.5" y="21.5" width="100" height="100" as="geometry">
            <mxPoint x="3.5" y="121.5" as="sourcePoint" />
            <mxPoint x="103.5" y="21.5" as="targetPoint" />
          </mxGeometry>
        </mxCell>
        <mxCell id="1406" value="" style="edgeStyle=none;endArrow=none;strokeWidth=3;strokeColor=#F5AF58;html=1;exitX=0.5;exitY=0;exitDx=0;exitDy=0;" parent="1" source="1393" target="1394" edge="1">
          <mxGeometry x="3.5" y="21.5" width="100" height="100" as="geometry">
            <mxPoint x="3.5" y="121.5" as="sourcePoint" />
            <mxPoint x="103.5" y="21.5" as="targetPoint" />
          </mxGeometry>
        </mxCell>
        <mxCell id="1407" value="" style="edgeStyle=none;endArrow=none;strokeWidth=3;strokeColor=#F5AF58;html=1;exitX=0.5;exitY=0;exitDx=0;exitDy=0;" parent="1" source="1391" target="1395" edge="1">
          <mxGeometry x="3.5" y="21.5" width="100" height="100" as="geometry">
            <mxPoint x="3.5" y="121.5" as="sourcePoint" />
            <mxPoint x="103.5" y="21.5" as="targetPoint" />
          </mxGeometry>
        </mxCell>
        <mxCell id="1416" value="Processor&amp;nbsp;&lt;br&gt;Architecture" style="rounded=1;fillColor=#f08e81;strokeColor=none;strokeWidth=3;shadow=0;html=1;fontColor=#FFFFFF;" parent="1" vertex="1">
          <mxGeometry x="1631" y="221.5" width="120" height="40" as="geometry" />
        </mxCell>
        <mxCell id="1417" value="Streaming &lt;br&gt;Architecture" style="rounded=1;fillColor=#f08e81;strokeColor=none;strokeWidth=3;shadow=0;html=1;fontColor=#FFFFFF;" parent="1" vertex="1">
          <mxGeometry x="1766" y="166.5" width="120" height="40" as="geometry" />
        </mxCell>
        <mxCell id="1427" value="" style="edgeStyle=none;endArrow=none;strokeWidth=3;strokeColor=#F08E81;html=1;" parent="1" source="1352" target="1416" edge="1">
          <mxGeometry x="31" y="106.5" width="100" height="100" as="geometry">
            <mxPoint x="31" y="206.5" as="sourcePoint" />
            <mxPoint x="131" y="106.5" as="targetPoint" />
          </mxGeometry>
        </mxCell>
        <mxCell id="1428" value="" style="edgeStyle=none;endArrow=none;strokeWidth=3;strokeColor=#F08E81;html=1;" parent="1" source="1352" target="1417" edge="1">
          <mxGeometry x="31" y="106.5" width="100" height="100" as="geometry">
            <mxPoint x="31" y="206.5" as="sourcePoint" />
            <mxPoint x="131" y="106.5" as="targetPoint" />
          </mxGeometry>
        </mxCell>
        <mxCell id="1435" value="Perch" style="rounded=1;fillColor=#64BBE2;strokeColor=none;strokeWidth=3;shadow=0;html=1;fontColor=#FFFFFF;" parent="1" vertex="1">
          <mxGeometry x="1781" y="766.5" width="120" height="40" as="geometry" />
        </mxCell>
        <mxCell id="1436" value="Mackerel" style="rounded=1;fillColor=#64BBE2;strokeColor=none;strokeWidth=3;shadow=0;html=1;fontColor=#FFFFFF;" parent="1" vertex="1">
          <mxGeometry x="1811" y="696.5" width="120" height="40" as="geometry" />
        </mxCell>
        <mxCell id="1437" value="Tuna" style="rounded=1;fillColor=#64BBE2;strokeColor=none;strokeWidth=3;shadow=0;html=1;fontColor=#FFFFFF;" parent="1" vertex="1">
          <mxGeometry x="1936" y="666.5" width="120" height="40" as="geometry" />
        </mxCell>
        <mxCell id="1438" value="Shark" style="rounded=1;fillColor=#64BBE2;strokeColor=none;strokeWidth=3;shadow=0;html=1;fontColor=#FFFFFF;" parent="1" vertex="1">
          <mxGeometry x="2056" y="616.5" width="120" height="40" as="geometry" />
        </mxCell>
        <mxCell id="1439" value="Whale" style="rounded=1;fillColor=#64BBE2;strokeColor=none;strokeWidth=3;shadow=0;html=1;fontColor=#FFFFFF;" parent="1" vertex="1">
          <mxGeometry x="2101" y="706.5" width="120" height="40" as="geometry" />
        </mxCell>
        <mxCell id="1440" value="Bass" style="rounded=1;fillColor=#64BBE2;strokeColor=none;strokeWidth=3;shadow=0;html=1;fontColor=#FFFFFF;" parent="1" vertex="1">
          <mxGeometry x="2171" y="786.5" width="120" height="40" as="geometry" />
        </mxCell>
        <mxCell id="1441" value="Eel" style="rounded=1;fillColor=#64BBE2;strokeColor=none;strokeWidth=3;shadow=0;html=1;fontColor=#FFFFFF;" parent="1" vertex="1">
          <mxGeometry x="2121" y="966.5" width="120" height="40" as="geometry" />
        </mxCell>
        <mxCell id="1442" value="Oyster" style="rounded=1;fillColor=#64BBE2;strokeColor=none;strokeWidth=3;shadow=0;html=1;fontColor=#FFFFFF;" parent="1" vertex="1">
          <mxGeometry x="2181" y="871.5" width="120" height="40" as="geometry" />
        </mxCell>
        <mxCell id="1443" value="Ray" style="rounded=1;fillColor=#64BBE2;strokeColor=none;strokeWidth=3;shadow=0;html=1;fontColor=#FFFFFF;" parent="1" vertex="1">
          <mxGeometry x="1981" y="1016.5" width="120" height="40" as="geometry" />
        </mxCell>
        <mxCell id="1444" value="Trout" style="rounded=1;fillColor=#64BBE2;strokeColor=none;strokeWidth=3;shadow=0;html=1;fontColor=#FFFFFF;" parent="1" vertex="1">
          <mxGeometry x="1856" y="956.5" width="120" height="40" as="geometry" />
        </mxCell>
        <mxCell id="1445" value="Catfish" style="rounded=1;fillColor=#64BBE2;strokeColor=none;strokeWidth=3;shadow=0;html=1;fontColor=#FFFFFF;" parent="1" vertex="1">
          <mxGeometry x="1756" y="891.5" width="120" height="40" as="geometry" />
        </mxCell>
        <mxCell id="1446" value="" style="edgeStyle=none;endArrow=none;strokeWidth=3;strokeColor=#64BBE2;html=1;" parent="1" source="1353" target="1435" edge="1">
          <mxGeometry x="-24" y="196.5" width="100" height="100" as="geometry">
            <mxPoint x="-24" y="296.5" as="sourcePoint" />
            <mxPoint x="76" y="196.5" as="targetPoint" />
          </mxGeometry>
        </mxCell>
        <mxCell id="1447" value="" style="edgeStyle=none;endArrow=none;strokeWidth=3;strokeColor=#64BBE2;html=1;" parent="1" source="1353" target="1436" edge="1">
          <mxGeometry x="-24" y="196.5" width="100" height="100" as="geometry">
            <mxPoint x="-24" y="296.5" as="sourcePoint" />
            <mxPoint x="76" y="196.5" as="targetPoint" />
          </mxGeometry>
        </mxCell>
        <mxCell id="1448" value="" style="edgeStyle=none;endArrow=none;strokeWidth=3;strokeColor=#64BBE2;html=1;" parent="1" source="1353" target="1437" edge="1">
          <mxGeometry x="-24" y="196.5" width="100" height="100" as="geometry">
            <mxPoint x="-24" y="296.5" as="sourcePoint" />
            <mxPoint x="76" y="196.5" as="targetPoint" />
          </mxGeometry>
        </mxCell>
        <mxCell id="1449" value="" style="edgeStyle=none;endArrow=none;strokeWidth=3;strokeColor=#64BBE2;html=1;" parent="1" source="1353" target="1438" edge="1">
          <mxGeometry x="-24" y="196.5" width="100" height="100" as="geometry">
            <mxPoint x="-24" y="296.5" as="sourcePoint" />
            <mxPoint x="76" y="196.5" as="targetPoint" />
          </mxGeometry>
        </mxCell>
        <mxCell id="1450" value="" style="edgeStyle=none;endArrow=none;strokeWidth=3;strokeColor=#64BBE2;html=1;" parent="1" source="1353" target="1439" edge="1">
          <mxGeometry x="-24" y="196.5" width="100" height="100" as="geometry">
            <mxPoint x="-24" y="296.5" as="sourcePoint" />
            <mxPoint x="76" y="196.5" as="targetPoint" />
          </mxGeometry>
        </mxCell>
        <mxCell id="1451" value="" style="edgeStyle=none;endArrow=none;strokeWidth=3;strokeColor=#64BBE2;html=1;" parent="1" source="1353" target="1440" edge="1">
          <mxGeometry x="-24" y="196.5" width="100" height="100" as="geometry">
            <mxPoint x="-24" y="296.5" as="sourcePoint" />
            <mxPoint x="76" y="196.5" as="targetPoint" />
          </mxGeometry>
        </mxCell>
        <mxCell id="1452" value="" style="edgeStyle=none;endArrow=none;strokeWidth=3;strokeColor=#64BBE2;html=1;" parent="1" source="1353" target="1442" edge="1">
          <mxGeometry x="-24" y="196.5" width="100" height="100" as="geometry">
            <mxPoint x="-24" y="296.5" as="sourcePoint" />
            <mxPoint x="76" y="196.5" as="targetPoint" />
          </mxGeometry>
        </mxCell>
        <mxCell id="1453" value="" style="edgeStyle=none;endArrow=none;strokeWidth=3;strokeColor=#64BBE2;html=1;" parent="1" source="1353" target="1441" edge="1">
          <mxGeometry x="-24" y="196.5" width="100" height="100" as="geometry">
            <mxPoint x="-24" y="296.5" as="sourcePoint" />
            <mxPoint x="76" y="196.5" as="targetPoint" />
          </mxGeometry>
        </mxCell>
        <mxCell id="1454" value="" style="edgeStyle=none;endArrow=none;strokeWidth=3;strokeColor=#64BBE2;html=1;" parent="1" source="1353" target="1443" edge="1">
          <mxGeometry x="-24" y="196.5" width="100" height="100" as="geometry">
            <mxPoint x="-24" y="296.5" as="sourcePoint" />
            <mxPoint x="76" y="196.5" as="targetPoint" />
          </mxGeometry>
        </mxCell>
        <mxCell id="1455" value="" style="edgeStyle=none;endArrow=none;strokeWidth=3;strokeColor=#64BBE2;html=1;" parent="1" source="1353" target="1444" edge="1">
          <mxGeometry x="-24" y="196.5" width="100" height="100" as="geometry">
            <mxPoint x="-24" y="296.5" as="sourcePoint" />
            <mxPoint x="76" y="196.5" as="targetPoint" />
          </mxGeometry>
        </mxCell>
        <mxCell id="1456" value="" style="edgeStyle=none;endArrow=none;strokeWidth=3;strokeColor=#64BBE2;html=1;" parent="1" source="1353" target="1445" edge="1">
          <mxGeometry x="-24" y="196.5" width="100" height="100" as="geometry">
            <mxPoint x="-24" y="296.5" as="sourcePoint" />
            <mxPoint x="76" y="196.5" as="targetPoint" />
          </mxGeometry>
        </mxCell>
        <mxCell id="1457" value="Streptococcus" style="rounded=1;fillColor=#a29dc5;strokeColor=none;strokeWidth=3;shadow=0;html=1;fontColor=#FFFFFF;" parent="1" vertex="1">
          <mxGeometry x="1646" y="1087" width="120" height="40" as="geometry" />
        </mxCell>
        <mxCell id="1458" value="Echericia Colli" style="rounded=1;fillColor=#a29dc5;strokeColor=none;strokeWidth=3;shadow=0;html=1;fontColor=#FFFFFF;" parent="1" vertex="1">
          <mxGeometry x="1631" y="1301.5" width="120" height="40" as="geometry" />
        </mxCell>
        <mxCell id="1459" value="Lactobacyllus" style="rounded=1;fillColor=#a29dc5;strokeColor=none;strokeWidth=3;shadow=0;html=1;fontColor=#FFFFFF;" parent="1" vertex="1">
          <mxGeometry x="1801" y="1114" width="120" height="40" as="geometry" />
        </mxCell>
        <mxCell id="1460" value="Helicobacter" style="rounded=1;fillColor=#a29dc5;strokeColor=none;strokeWidth=3;shadow=0;html=1;fontColor=#FFFFFF;" parent="1" vertex="1">
          <mxGeometry x="1901" y="1194" width="120" height="40" as="geometry" />
        </mxCell>
        <mxCell id="1461" value="Bifidobacterium" style="rounded=1;fillColor=#a29dc5;strokeColor=none;strokeWidth=3;shadow=0;html=1;fontColor=#FFFFFF;" parent="1" vertex="1">
          <mxGeometry x="1821" y="1331.5" width="120" height="40" as="geometry" />
        </mxCell>
        <mxCell id="1462" value="Staphyllococcus" style="rounded=1;fillColor=#a29dc5;strokeColor=none;strokeWidth=3;shadow=0;html=1;fontColor=#FFFFFF;" parent="1" vertex="1">
          <mxGeometry x="1551" y="1211.5" width="120" height="40" as="geometry" />
        </mxCell>
        <mxCell id="1463" value="" style="edgeStyle=none;endArrow=none;strokeWidth=3;strokeColor=#A29DC5;html=1;" parent="1" source="1354" target="1460" edge="1">
          <mxGeometry x="251" y="-103.5" width="100" height="100" as="geometry">
            <mxPoint x="251" y="-3.5" as="sourcePoint" />
            <mxPoint x="351" y="-103.5" as="targetPoint" />
          </mxGeometry>
        </mxCell>
        <mxCell id="1464" value="" style="edgeStyle=none;endArrow=none;strokeWidth=3;strokeColor=#A29DC5;html=1;" parent="1" source="1354" target="1461" edge="1">
          <mxGeometry x="251" y="-103.5" width="100" height="100" as="geometry">
            <mxPoint x="251" y="-3.5" as="sourcePoint" />
            <mxPoint x="351" y="-103.5" as="targetPoint" />
          </mxGeometry>
        </mxCell>
        <mxCell id="1465" value="" style="edgeStyle=none;endArrow=none;strokeWidth=3;strokeColor=#A29DC5;html=1;" parent="1" source="1354" target="1458" edge="1">
          <mxGeometry x="251" y="-103.5" width="100" height="100" as="geometry">
            <mxPoint x="251" y="-3.5" as="sourcePoint" />
            <mxPoint x="351" y="-103.5" as="targetPoint" />
          </mxGeometry>
        </mxCell>
        <mxCell id="1466" value="" style="edgeStyle=none;endArrow=none;strokeWidth=3;strokeColor=#A29DC5;html=1;" parent="1" source="1354" target="1462" edge="1">
          <mxGeometry x="251" y="-103.5" width="100" height="100" as="geometry">
            <mxPoint x="251" y="-3.5" as="sourcePoint" />
            <mxPoint x="351" y="-103.5" as="targetPoint" />
          </mxGeometry>
        </mxCell>
        <mxCell id="1467" value="" style="edgeStyle=none;endArrow=none;strokeWidth=3;strokeColor=#A29DC5;html=1;" parent="1" source="1354" target="1457" edge="1">
          <mxGeometry x="251" y="-103.5" width="100" height="100" as="geometry">
            <mxPoint x="251" y="-3.5" as="sourcePoint" />
            <mxPoint x="351" y="-103.5" as="targetPoint" />
          </mxGeometry>
        </mxCell>
        <mxCell id="1468" value="Zygomycota" style="rounded=1;fillColor=#f5af58;strokeColor=none;strokeWidth=3;shadow=0;html=1;fontColor=#FFFFFF;" parent="1" vertex="1">
          <mxGeometry x="1358.5" y="1274" width="120" height="40" as="geometry" />
        </mxCell>
        <mxCell id="1469" value="Script Writing" style="rounded=1;fillColor=#f5af58;strokeColor=none;strokeWidth=3;shadow=0;html=1;fontColor=#FFFFFF;" parent="1" vertex="1">
          <mxGeometry x="1373.5" y="1346.5" width="120" height="40" as="geometry" />
        </mxCell>
        <mxCell id="1470" value="Ascomycota" style="rounded=1;fillColor=#f5af58;strokeColor=none;strokeWidth=3;shadow=0;html=1;fontColor=#FFFFFF;" parent="1" vertex="1">
          <mxGeometry x="1348.5" y="1411.5" width="120" height="40" as="geometry" />
        </mxCell>
        <mxCell id="1471" value="Basidiomycota" style="rounded=1;fillColor=#f5af58;strokeColor=none;strokeWidth=3;shadow=0;html=1;fontColor=#FFFFFF;" parent="1" vertex="1">
          <mxGeometry x="1283.5" y="1471.5" width="120" height="40" as="geometry" />
        </mxCell>
        <mxCell id="1472" value="Mushroom" style="rounded=1;fillColor=#f5af58;strokeColor=none;strokeWidth=3;shadow=0;html=1;fontColor=#FFFFFF;" parent="1" vertex="1">
          <mxGeometry x="1183.5" y="1529" width="120" height="40" as="geometry" />
        </mxCell>
        <mxCell id="1473" value="Lichen" style="rounded=1;fillColor=#f5af58;strokeColor=none;strokeWidth=3;shadow=0;html=1;fontColor=#FFFFFF;" parent="1" vertex="1">
          <mxGeometry x="1083.5" y="1471.5" width="120" height="40" as="geometry" />
        </mxCell>
        <mxCell id="1474" value="Bread Mold" style="rounded=1;fillColor=#f5af58;strokeColor=none;strokeWidth=3;shadow=0;html=1;fontColor=#FFFFFF;" parent="1" vertex="1">
          <mxGeometry x="1003.5" y="1411.5" width="120" height="40" as="geometry" />
        </mxCell>
        <mxCell id="1475" value="Yeast" style="rounded=1;fillColor=#f5af58;strokeColor=none;strokeWidth=3;shadow=0;html=1;fontColor=#FFFFFF;" parent="1" vertex="1">
          <mxGeometry x="963.5" y="1339" width="120" height="40" as="geometry" />
        </mxCell>
        <mxCell id="1476" value="Zygospore" style="rounded=1;fillColor=#f5af58;strokeColor=none;strokeWidth=3;shadow=0;html=1;fontColor=#FFFFFF;" parent="1" vertex="1">
          <mxGeometry x="968.5" y="1274" width="120" height="40" as="geometry" />
        </mxCell>
        <mxCell id="1477" value="Truffle" style="rounded=1;fillColor=#f5af58;strokeColor=none;strokeWidth=3;shadow=0;html=1;fontColor=#FFFFFF;" parent="1" vertex="1">
          <mxGeometry x="1028.5" y="1209" width="120" height="40" as="geometry" />
        </mxCell>
        <mxCell id="1478" value="Chytrid" style="rounded=1;fillColor=#f5af58;strokeColor=none;strokeWidth=3;shadow=0;html=1;fontColor=#FFFFFF;" parent="1" vertex="1">
          <mxGeometry x="1298.5" y="1194" width="120" height="40" as="geometry" />
        </mxCell>
        <mxCell id="1479" value="" style="edgeStyle=none;endArrow=none;strokeWidth=3;strokeColor=#F5AF58;html=1;" parent="1" source="1355" target="1478" edge="1">
          <mxGeometry x="243.5" y="39" width="100" height="100" as="geometry">
            <mxPoint x="243.5" y="139" as="sourcePoint" />
            <mxPoint x="343.5" y="39" as="targetPoint" />
          </mxGeometry>
        </mxCell>
        <mxCell id="1480" value="" style="edgeStyle=none;endArrow=none;strokeWidth=3;strokeColor=#F5AF58;html=1;" parent="1" source="1355" target="1468" edge="1">
          <mxGeometry x="243.5" y="39" width="100" height="100" as="geometry">
            <mxPoint x="243.5" y="139" as="sourcePoint" />
            <mxPoint x="343.5" y="39" as="targetPoint" />
          </mxGeometry>
        </mxCell>
        <mxCell id="1481" value="" style="edgeStyle=none;endArrow=none;strokeWidth=3;strokeColor=#F5AF58;html=1;" parent="1" source="1355" target="1469" edge="1">
          <mxGeometry x="243.5" y="39" width="100" height="100" as="geometry">
            <mxPoint x="243.5" y="139" as="sourcePoint" />
            <mxPoint x="343.5" y="39" as="targetPoint" />
          </mxGeometry>
        </mxCell>
        <mxCell id="1482" value="" style="edgeStyle=none;endArrow=none;strokeWidth=3;strokeColor=#F5AF58;html=1;" parent="1" source="1355" target="1470" edge="1">
          <mxGeometry x="243.5" y="39" width="100" height="100" as="geometry">
            <mxPoint x="243.5" y="139" as="sourcePoint" />
            <mxPoint x="343.5" y="39" as="targetPoint" />
          </mxGeometry>
        </mxCell>
        <mxCell id="1483" value="" style="edgeStyle=none;endArrow=none;strokeWidth=3;strokeColor=#F5AF58;html=1;" parent="1" source="1355" target="1471" edge="1">
          <mxGeometry x="243.5" y="39" width="100" height="100" as="geometry">
            <mxPoint x="243.5" y="139" as="sourcePoint" />
            <mxPoint x="343.5" y="39" as="targetPoint" />
          </mxGeometry>
        </mxCell>
        <mxCell id="1484" value="" style="edgeStyle=none;endArrow=none;strokeWidth=3;strokeColor=#F5AF58;html=1;" parent="1" source="1355" target="1472" edge="1">
          <mxGeometry x="243.5" y="39" width="100" height="100" as="geometry">
            <mxPoint x="243.5" y="139" as="sourcePoint" />
            <mxPoint x="343.5" y="39" as="targetPoint" />
          </mxGeometry>
        </mxCell>
        <mxCell id="1485" value="" style="edgeStyle=none;endArrow=none;strokeWidth=3;strokeColor=#F5AF58;html=1;" parent="1" source="1355" target="1473" edge="1">
          <mxGeometry x="243.5" y="39" width="100" height="100" as="geometry">
            <mxPoint x="243.5" y="139" as="sourcePoint" />
            <mxPoint x="343.5" y="39" as="targetPoint" />
          </mxGeometry>
        </mxCell>
        <mxCell id="1486" value="" style="edgeStyle=none;endArrow=none;strokeWidth=3;strokeColor=#F5AF58;html=1;" parent="1" source="1355" target="1474" edge="1">
          <mxGeometry x="243.5" y="39" width="100" height="100" as="geometry">
            <mxPoint x="243.5" y="139" as="sourcePoint" />
            <mxPoint x="343.5" y="39" as="targetPoint" />
          </mxGeometry>
        </mxCell>
        <mxCell id="1487" value="" style="edgeStyle=none;endArrow=none;strokeWidth=3;strokeColor=#F5AF58;html=1;" parent="1" source="1355" target="1475" edge="1">
          <mxGeometry x="243.5" y="39" width="100" height="100" as="geometry">
            <mxPoint x="243.5" y="139" as="sourcePoint" />
            <mxPoint x="343.5" y="39" as="targetPoint" />
          </mxGeometry>
        </mxCell>
        <mxCell id="1488" value="" style="edgeStyle=none;endArrow=none;strokeWidth=3;strokeColor=#F5AF58;html=1;" parent="1" source="1355" target="1476" edge="1">
          <mxGeometry x="243.5" y="39" width="100" height="100" as="geometry">
            <mxPoint x="243.5" y="139" as="sourcePoint" />
            <mxPoint x="343.5" y="39" as="targetPoint" />
          </mxGeometry>
        </mxCell>
        <mxCell id="1489" value="" style="edgeStyle=none;endArrow=none;strokeWidth=3;strokeColor=#F5AF58;html=1;" parent="1" source="1355" target="1477" edge="1">
          <mxGeometry x="243.5" y="39" width="100" height="100" as="geometry">
            <mxPoint x="243.5" y="139" as="sourcePoint" />
            <mxPoint x="343.5" y="39" as="targetPoint" />
          </mxGeometry>
        </mxCell>
        <mxCell id="1490" value="Philadendron" style="rounded=1;fillColor=#f08e81;strokeColor=none;strokeWidth=3;shadow=0;html=1;fontColor=#FFFFFF;" parent="1" vertex="1">
          <mxGeometry x="623.5" y="1006.5" width="120" height="40" as="geometry" />
        </mxCell>
        <mxCell id="1491" value="Dahlia" style="rounded=1;fillColor=#f08e81;strokeColor=none;strokeWidth=3;shadow=0;html=1;fontColor=#FFFFFF;" parent="1" vertex="1">
          <mxGeometry x="488.5" y="1011.5" width="120" height="40" as="geometry" />
        </mxCell>
        <mxCell id="1492" value="Petunia" style="rounded=1;fillColor=#f08e81;strokeColor=none;strokeWidth=3;shadow=0;html=1;fontColor=#FFFFFF;" parent="1" vertex="1">
          <mxGeometry x="423.5" y="1066.5" width="120" height="40" as="geometry" />
        </mxCell>
        <mxCell id="1493" value="Cactus" style="rounded=1;fillColor=#f08e81;strokeColor=none;strokeWidth=3;shadow=0;html=1;fontColor=#FFFFFF;" parent="1" vertex="1">
          <mxGeometry x="368.5" y="1126.5" width="120" height="40" as="geometry" />
        </mxCell>
        <mxCell id="1494" value="Tulip" style="rounded=1;fillColor=#f08e81;strokeColor=none;strokeWidth=3;shadow=0;html=1;fontColor=#FFFFFF;" parent="1" vertex="1">
          <mxGeometry x="348.5" y="1181.5" width="120" height="40" as="geometry" />
        </mxCell>
        <mxCell id="1495" value="Lilac" style="rounded=1;fillColor=#f08e81;strokeColor=none;strokeWidth=3;shadow=0;html=1;fontColor=#FFFFFF;" parent="1" vertex="1">
          <mxGeometry x="363.5" y="1246.5" width="120" height="40" as="geometry" />
        </mxCell>
        <mxCell id="1496" value="Dandelion" style="rounded=1;fillColor=#f08e81;strokeColor=none;strokeWidth=3;shadow=0;html=1;fontColor=#FFFFFF;" parent="1" vertex="1">
          <mxGeometry x="398.5" y="1309" width="120" height="40" as="geometry" />
        </mxCell>
        <mxCell id="1497" value="Poppy" style="rounded=1;fillColor=#f08e81;strokeColor=none;strokeWidth=3;shadow=0;html=1;fontColor=#FFFFFF;" parent="1" vertex="1">
          <mxGeometry x="468.5" y="1359" width="120" height="40" as="geometry" />
        </mxCell>
        <mxCell id="1498" value="Gerbera" style="rounded=1;fillColor=#f08e81;strokeColor=none;strokeWidth=3;shadow=0;html=1;fontColor=#FFFFFF;" parent="1" vertex="1">
          <mxGeometry x="578.5" y="1414" width="120" height="40" as="geometry" />
        </mxCell>
        <mxCell id="1499" value="Orchid" style="rounded=1;fillColor=#f08e81;strokeColor=none;strokeWidth=3;shadow=0;html=1;fontColor=#FFFFFF;" parent="1" vertex="1">
          <mxGeometry x="703.5" y="1349" width="120" height="40" as="geometry" />
        </mxCell>
        <mxCell id="1500" value="Gladiola" style="rounded=1;fillColor=#f08e81;strokeColor=none;strokeWidth=3;shadow=0;html=1;fontColor=#FFFFFF;" parent="1" vertex="1">
          <mxGeometry x="763.5" y="1281.5" width="120" height="40" as="geometry" />
        </mxCell>
        <mxCell id="1501" value="Rose" style="rounded=1;fillColor=#f08e81;strokeColor=none;strokeWidth=3;shadow=0;html=1;fontColor=#FFFFFF;" parent="1" vertex="1">
          <mxGeometry x="783.5" y="1186" width="120" height="40" as="geometry" />
        </mxCell>
        <mxCell id="1502" value="" style="edgeStyle=none;endArrow=none;strokeWidth=3;strokeColor=#F08E81;html=1;" parent="1" source="1356" target="1501" edge="1">
          <mxGeometry x="188.5" y="51.5" width="100" height="100" as="geometry">
            <mxPoint x="188.5" y="151.5" as="sourcePoint" />
            <mxPoint x="288.5" y="51.5" as="targetPoint" />
          </mxGeometry>
        </mxCell>
        <mxCell id="1503" value="" style="edgeStyle=none;endArrow=none;strokeWidth=3;strokeColor=#F08E81;html=1;" parent="1" source="1356" target="1490" edge="1">
          <mxGeometry x="188.5" y="51.5" width="100" height="100" as="geometry">
            <mxPoint x="188.5" y="151.5" as="sourcePoint" />
            <mxPoint x="288.5" y="51.5" as="targetPoint" />
          </mxGeometry>
        </mxCell>
        <mxCell id="1504" value="" style="edgeStyle=none;endArrow=none;strokeWidth=3;strokeColor=#F08E81;html=1;" parent="1" source="1356" target="1491" edge="1">
          <mxGeometry x="188.5" y="51.5" width="100" height="100" as="geometry">
            <mxPoint x="188.5" y="151.5" as="sourcePoint" />
            <mxPoint x="288.5" y="51.5" as="targetPoint" />
          </mxGeometry>
        </mxCell>
        <mxCell id="1505" value="" style="edgeStyle=none;endArrow=none;strokeWidth=3;strokeColor=#F08E81;html=1;" parent="1" source="1356" target="1492" edge="1">
          <mxGeometry x="188.5" y="51.5" width="100" height="100" as="geometry">
            <mxPoint x="188.5" y="151.5" as="sourcePoint" />
            <mxPoint x="288.5" y="51.5" as="targetPoint" />
          </mxGeometry>
        </mxCell>
        <mxCell id="1506" value="" style="edgeStyle=none;endArrow=none;strokeWidth=3;strokeColor=#F08E81;html=1;" parent="1" source="1356" target="1493" edge="1">
          <mxGeometry x="188.5" y="51.5" width="100" height="100" as="geometry">
            <mxPoint x="188.5" y="151.5" as="sourcePoint" />
            <mxPoint x="288.5" y="51.5" as="targetPoint" />
          </mxGeometry>
        </mxCell>
        <mxCell id="1507" value="" style="edgeStyle=none;endArrow=none;strokeWidth=3;strokeColor=#F08E81;html=1;" parent="1" source="1356" target="1494" edge="1">
          <mxGeometry x="188.5" y="51.5" width="100" height="100" as="geometry">
            <mxPoint x="188.5" y="151.5" as="sourcePoint" />
            <mxPoint x="288.5" y="51.5" as="targetPoint" />
          </mxGeometry>
        </mxCell>
        <mxCell id="1508" value="" style="edgeStyle=none;endArrow=none;strokeWidth=3;strokeColor=#F08E81;html=1;" parent="1" source="1356" target="1495" edge="1">
          <mxGeometry x="188.5" y="51.5" width="100" height="100" as="geometry">
            <mxPoint x="188.5" y="151.5" as="sourcePoint" />
            <mxPoint x="288.5" y="51.5" as="targetPoint" />
          </mxGeometry>
        </mxCell>
        <mxCell id="1509" value="" style="edgeStyle=none;endArrow=none;strokeWidth=3;strokeColor=#F08E81;html=1;" parent="1" source="1356" target="1496" edge="1">
          <mxGeometry x="188.5" y="51.5" width="100" height="100" as="geometry">
            <mxPoint x="188.5" y="151.5" as="sourcePoint" />
            <mxPoint x="288.5" y="51.5" as="targetPoint" />
          </mxGeometry>
        </mxCell>
        <mxCell id="1510" value="" style="edgeStyle=none;endArrow=none;strokeWidth=3;strokeColor=#F08E81;html=1;" parent="1" source="1356" target="1497" edge="1">
          <mxGeometry x="188.5" y="51.5" width="100" height="100" as="geometry">
            <mxPoint x="188.5" y="151.5" as="sourcePoint" />
            <mxPoint x="288.5" y="51.5" as="targetPoint" />
          </mxGeometry>
        </mxCell>
        <mxCell id="1511" value="" style="edgeStyle=none;endArrow=none;strokeWidth=3;strokeColor=#F08E81;html=1;" parent="1" source="1356" target="1498" edge="1">
          <mxGeometry x="188.5" y="51.5" width="100" height="100" as="geometry">
            <mxPoint x="188.5" y="151.5" as="sourcePoint" />
            <mxPoint x="288.5" y="51.5" as="targetPoint" />
          </mxGeometry>
        </mxCell>
        <mxCell id="1512" value="" style="edgeStyle=none;endArrow=none;strokeWidth=3;strokeColor=#F08E81;html=1;" parent="1" source="1356" target="1499" edge="1">
          <mxGeometry x="188.5" y="51.5" width="100" height="100" as="geometry">
            <mxPoint x="188.5" y="151.5" as="sourcePoint" />
            <mxPoint x="288.5" y="51.5" as="targetPoint" />
          </mxGeometry>
        </mxCell>
        <mxCell id="1513" value="" style="edgeStyle=none;endArrow=none;strokeWidth=3;strokeColor=#F08E81;html=1;" parent="1" source="1356" target="1500" edge="1">
          <mxGeometry x="188.5" y="51.5" width="100" height="100" as="geometry">
            <mxPoint x="188.5" y="151.5" as="sourcePoint" />
            <mxPoint x="288.5" y="51.5" as="targetPoint" />
          </mxGeometry>
        </mxCell>
        <mxCell id="1514" style="edgeStyle=orthogonalEdgeStyle;rounded=0;html=1;exitX=0.75;exitY=0;entryX=0.75;entryY=0;startArrow=none;startFill=0;endArrow=block;endFill=1;jettySize=auto;orthogonalLoop=1;strokeColor=#12aab5;strokeWidth=6;fontSize=20;fontColor=#2F5B7C;" parent="1" edge="1">
          <mxGeometry relative="1" as="geometry">
            <mxPoint x="1611" y="371.5" as="sourcePoint" />
            <mxPoint x="1611" y="371.5" as="targetPoint" />
          </mxGeometry>
        </mxCell>
        <mxCell id="1515" value="DeepLearning&lt;br&gt;Compiler" style="ellipse;whiteSpace=wrap;html=1;shadow=0;fontFamily=Helvetica;fontSize=30;fontColor=#2F5B7C;align=center;strokeColor=#2F5B7C;strokeWidth=6;fillColor=#FFFFFF;fontStyle=1;gradientColor=none;" parent="1" vertex="1">
          <mxGeometry x="961" y="676.5" width="270" height="270" as="geometry" />
        </mxCell>
        <mxCell id="1516" value="&lt;div&gt;COMMON DESIGN ARCHITECTURE OF DL COMPILERS&lt;/div&gt;" style="ellipse;whiteSpace=wrap;html=1;shadow=0;fontFamily=Helvetica;fontSize=20;fontColor=#FFFFFF;align=center;strokeWidth=3;fillColor=#736ca8;strokeColor=none;" parent="1" vertex="1">
          <mxGeometry x="460" y="681" width="230.5" height="230.5" as="geometry" />
        </mxCell>
        <mxCell id="1517" value="FrontEnd" style="rounded=1;fillColor=#a29dc5;strokeColor=none;strokeWidth=3;shadow=0;html=1;fontColor=#FFFFFF;" parent="1" vertex="1">
          <mxGeometry x="328.5" y="640" width="120" height="40" as="geometry" />
        </mxCell>
        <mxCell id="1518" value="Node Level &lt;br&gt;Optimization" style="rounded=1;fillColor=#a29dc5;strokeColor=none;strokeWidth=3;shadow=0;html=1;fontColor=#FFFFFF;" parent="1" vertex="1">
          <mxGeometry x="448.5" y="550" width="120" height="40" as="geometry" />
        </mxCell>
        <mxCell id="1519" value="Block Level&lt;br&gt;Optimization" style="rounded=1;fillColor=#a29dc5;strokeColor=none;strokeWidth=3;shadow=0;html=1;fontColor=#FFFFFF;" parent="1" vertex="1">
          <mxGeometry x="310" y="550" width="120" height="40" as="geometry" />
        </mxCell>
        <mxCell id="1520" value="Dataflow Level&lt;br&gt;Optimization" style="rounded=1;fillColor=#a29dc5;strokeColor=none;strokeWidth=3;shadow=0;html=1;fontColor=#FFFFFF;" parent="1" vertex="1">
          <mxGeometry x="170" y="550" width="120" height="40" as="geometry" />
        </mxCell>
        <mxCell id="1521" value="Parallelization" style="rounded=1;fillColor=#a29dc5;strokeColor=none;strokeWidth=3;shadow=0;html=1;fontColor=#FFFFFF;" parent="1" vertex="1">
          <mxGeometry x="-1.5" y="1168.46" width="120" height="40" as="geometry" />
        </mxCell>
        <mxCell id="1522" value="High Level IR&lt;br&gt;(Graph IR)" style="rounded=1;fillColor=#a29dc5;strokeColor=none;strokeWidth=3;shadow=0;html=1;fontColor=#FFFFFF;" parent="1" vertex="1">
          <mxGeometry x="-1.5" y="609.5" width="120" height="40" as="geometry" />
        </mxCell>
        <mxCell id="1523" value="Memory Latency&lt;br&gt;Hiding" style="rounded=1;fillColor=#a29dc5;strokeColor=none;strokeWidth=3;shadow=0;html=1;fontColor=#FFFFFF;" parent="1" vertex="1">
          <mxGeometry x="-131.5" y="1168.96" width="120" height="40" as="geometry" />
        </mxCell>
        <mxCell id="1524" value="Memory Allocation&lt;br&gt;and Fetching" style="rounded=1;fillColor=#a29dc5;strokeColor=none;strokeWidth=3;shadow=0;html=1;fontColor=#FFFFFF;" parent="1" vertex="1">
          <mxGeometry x="-161.5" y="1088.46" width="120" height="40" as="geometry" />
        </mxCell>
        <mxCell id="1525" value="Hardware Intrinsic&lt;br&gt;Mapping" style="rounded=1;fillColor=#a29dc5;strokeColor=none;strokeWidth=3;shadow=0;html=1;fontColor=#FFFFFF;" parent="1" vertex="1">
          <mxGeometry x="-191.5" y="1033.46" width="120" height="41.5" as="geometry" />
        </mxCell>
        <mxCell id="1527" value="DAG based&lt;br&gt;IR" style="rounded=1;fillColor=#a29dc5;strokeColor=none;strokeWidth=3;shadow=0;html=1;fontColor=#FFFFFF;" parent="1" vertex="1">
          <mxGeometry x="-370" y="510" width="120" height="40" as="geometry" />
        </mxCell>
        <mxCell id="1528" value="" style="edgeStyle=none;endArrow=none;strokeWidth=3;strokeColor=#A29DC5;html=1;" parent="1" source="1516" target="1517" edge="1">
          <mxGeometry x="-1498" y="-303.5" width="100" height="100" as="geometry">
            <mxPoint x="-1498" y="-203.5" as="sourcePoint" />
            <mxPoint x="-1398" y="-303.5" as="targetPoint" />
          </mxGeometry>
        </mxCell>
        <mxCell id="1529" value="Low Level IR" style="rounded=1;fillColor=#a29dc5;strokeColor=none;strokeWidth=3;shadow=0;html=1;fontColor=#FFFFFF;" parent="1" vertex="1">
          <mxGeometry x="-1.5" y="846.5" width="120" height="40" as="geometry" />
        </mxCell>
        <mxCell id="1530" value="" style="edgeStyle=none;endArrow=none;strokeWidth=3;strokeColor=#A29DC5;html=1;" parent="1" source="1517" target="1518" edge="1">
          <mxGeometry x="-1498" y="-303.5" width="100" height="100" as="geometry">
            <mxPoint x="-1498" y="-203.5" as="sourcePoint" />
            <mxPoint x="-1398" y="-303.5" as="targetPoint" />
          </mxGeometry>
        </mxCell>
        <mxCell id="1531" value="" style="edgeStyle=none;endArrow=none;strokeWidth=3;strokeColor=#A29DC5;html=1;exitX=0.5;exitY=0;exitDx=0;exitDy=0;" parent="1" source="1517" target="1519" edge="1">
          <mxGeometry x="-1498" y="-303.5" width="100" height="100" as="geometry">
            <mxPoint x="-1498" y="-203.5" as="sourcePoint" />
            <mxPoint x="-1398" y="-303.5" as="targetPoint" />
          </mxGeometry>
        </mxCell>
        <mxCell id="1532" value="" style="edgeStyle=none;endArrow=none;strokeWidth=3;strokeColor=#A29DC5;html=1;exitX=0.5;exitY=0;exitDx=0;exitDy=0;" parent="1" source="1517" target="1520" edge="1">
          <mxGeometry x="-1498" y="-303.5" width="100" height="100" as="geometry">
            <mxPoint x="-1498" y="-203.5" as="sourcePoint" />
            <mxPoint x="-1398" y="-303.5" as="targetPoint" />
          </mxGeometry>
        </mxCell>
        <mxCell id="1533" value="" style="edgeStyle=none;endArrow=none;strokeWidth=3;strokeColor=#A29DC5;html=1;exitX=0.5;exitY=1;exitDx=0;exitDy=0;" parent="1" source="1526" target="1521" edge="1">
          <mxGeometry x="-1669.5" y="-181.54000000000002" width="100" height="100" as="geometry">
            <mxPoint x="28.5" y="1011.96" as="sourcePoint" />
            <mxPoint x="-1569.5" y="-181.54000000000002" as="targetPoint" />
          </mxGeometry>
        </mxCell>
        <mxCell id="1534" value="" style="edgeStyle=none;endArrow=none;strokeWidth=3;strokeColor=#A29DC5;html=1;" parent="1" source="1516" target="1522" edge="1">
          <mxGeometry x="-1498" y="-303.5" width="100" height="100" as="geometry">
            <mxPoint x="-1498" y="-203.5" as="sourcePoint" />
            <mxPoint x="-1398" y="-303.5" as="targetPoint" />
          </mxGeometry>
        </mxCell>
        <mxCell id="1535" value="" style="edgeStyle=none;endArrow=none;strokeWidth=3;strokeColor=#A29DC5;html=1;startArrow=none;exitX=0.5;exitY=1;exitDx=0;exitDy=0;" parent="1" source="1526" target="1523" edge="1">
          <mxGeometry x="-1669.5" y="-181.54000000000002" width="100" height="100" as="geometry">
            <mxPoint x="18.5" y="1001.96" as="sourcePoint" />
            <mxPoint x="-1569.5" y="-181.54000000000002" as="targetPoint" />
          </mxGeometry>
        </mxCell>
        <mxCell id="1536" value="" style="edgeStyle=none;endArrow=none;strokeWidth=3;strokeColor=#A29DC5;html=1;exitX=0.5;exitY=1;exitDx=0;exitDy=0;" parent="1" source="1526" target="1524" edge="1">
          <mxGeometry x="-1669.5" y="-181.54000000000002" width="100" height="100" as="geometry">
            <mxPoint x="-1669.5" y="-81.54" as="sourcePoint" />
            <mxPoint x="-1569.5" y="-181.54000000000002" as="targetPoint" />
          </mxGeometry>
        </mxCell>
        <mxCell id="1537" value="" style="edgeStyle=none;endArrow=none;strokeWidth=3;strokeColor=#A29DC5;html=1;exitX=0.442;exitY=0.963;exitDx=0;exitDy=0;exitPerimeter=0;" parent="1" source="1526" target="1525" edge="1">
          <mxGeometry x="-1669.5" y="-181.54000000000002" width="100" height="100" as="geometry">
            <mxPoint x="-1669.5" y="-81.54" as="sourcePoint" />
            <mxPoint x="-1569.5" y="-181.54000000000002" as="targetPoint" />
          </mxGeometry>
        </mxCell>
        <mxCell id="1538" value="" style="edgeStyle=none;endArrow=none;strokeWidth=3;strokeColor=#A29DC5;html=1;exitX=0.5;exitY=1;exitDx=0;exitDy=0;" parent="1" source="4GYAZwL1Yk9UIPvbFbgs-1552" target="1526" edge="1">
          <mxGeometry x="-1669.5" y="-181.54000000000002" width="100" height="100" as="geometry">
            <mxPoint x="92.03074300257003" y="956.4963911936966" as="sourcePoint" />
            <mxPoint x="-1569.5" y="-181.54000000000002" as="targetPoint" />
          </mxGeometry>
        </mxCell>
        <mxCell id="1539" value="" style="edgeStyle=none;endArrow=none;strokeWidth=3;strokeColor=#A29DC5;html=1;exitX=0;exitY=0.5;exitDx=0;exitDy=0;" parent="1" source="4GYAZwL1Yk9UIPvbFbgs-1558" target="1527" edge="1">
          <mxGeometry x="-1498" y="-303.5" width="100" height="100" as="geometry">
            <mxPoint x="-1498" y="-203.5" as="sourcePoint" />
            <mxPoint x="-1398" y="-303.5" as="targetPoint" />
          </mxGeometry>
        </mxCell>
        <mxCell id="1540" value="" style="edgeStyle=none;endArrow=none;strokeWidth=3;strokeColor=#A29DC5;html=1;" parent="1" source="1516" target="1529" edge="1">
          <mxGeometry x="-1498" y="-303.5" width="100" height="100" as="geometry">
            <mxPoint x="-1498" y="-203.5" as="sourcePoint" />
            <mxPoint x="-1398" y="-303.5" as="targetPoint" />
          </mxGeometry>
        </mxCell>
        <mxCell id="1541" value="" style="edgeStyle=none;endArrow=none;strokeWidth=3;strokeColor=#A29DC5;html=1;" parent="1" source="1354" target="1459" edge="1">
          <mxGeometry x="-1174" y="-408.5" width="100" height="100" as="geometry">
            <mxPoint x="-1174" y="-308.5" as="sourcePoint" />
            <mxPoint x="-1074" y="-408.5" as="targetPoint" />
          </mxGeometry>
        </mxCell>
        <mxCell id="1542" style="edgeStyle=none;rounded=0;html=1;exitX=0.5;exitY=1;endArrow=none;endFill=0;jettySize=auto;orthogonalLoop=1;strokeColor=#736CA8;strokeWidth=2;fillColor=#64bbe2;fontSize=20;fontColor=#23445D;" parent="1" source="1529" target="1529" edge="1">
          <mxGeometry relative="1" as="geometry" />
        </mxCell>
        <mxCell id="4GYAZwL1Yk9UIPvbFbgs-1542" value="" style="endArrow=none;html=1;rounded=0;entryX=0.454;entryY=0.038;entryDx=0;entryDy=0;exitX=0.5;exitY=1;exitDx=0;exitDy=0;entryPerimeter=0;" edge="1" parent="1" source="1390" target="1392">
          <mxGeometry width="50" height="50" relative="1" as="geometry">
            <mxPoint x="1020" y="420" as="sourcePoint" />
            <mxPoint x="1070" y="370" as="targetPoint" />
          </mxGeometry>
        </mxCell>
        <mxCell id="4GYAZwL1Yk9UIPvbFbgs-1543" value="Loop Oriented&lt;br&gt;Optimization" style="rounded=1;fillColor=#a29dc5;strokeColor=none;strokeWidth=3;shadow=0;html=1;fontColor=#FFFFFF;" vertex="1" parent="1">
          <mxGeometry x="132" y="1168.96" width="120" height="40" as="geometry" />
        </mxCell>
        <mxCell id="4GYAZwL1Yk9UIPvbFbgs-1546" value="" style="edgeStyle=none;endArrow=none;strokeWidth=3;strokeColor=#A29DC5;html=1;entryX=0;entryY=0.25;entryDx=0;entryDy=0;exitX=0.5;exitY=1;exitDx=0;exitDy=0;" edge="1" parent="1" source="1526" target="4GYAZwL1Yk9UIPvbFbgs-1543">
          <mxGeometry x="-1659.5" y="-171.54000000000002" width="100" height="100" as="geometry">
            <mxPoint x="28.5" y="1011.96" as="sourcePoint" />
            <mxPoint x="132.18771331058042" y="1148.46" as="targetPoint" />
          </mxGeometry>
        </mxCell>
        <mxCell id="1526" value="BackEnd&lt;br&gt;Optimization" style="rounded=1;fillColor=#a29dc5;strokeColor=none;strokeWidth=3;shadow=0;html=1;fontColor=#FFFFFF;" parent="1" vertex="1">
          <mxGeometry x="-41.5" y="991.96" width="120" height="40" as="geometry" />
        </mxCell>
        <mxCell id="4GYAZwL1Yk9UIPvbFbgs-1548" value="Auto Scheduling&lt;br&gt;(Polyhedral)" style="rounded=1;fillColor=#a29dc5;strokeColor=none;strokeWidth=3;shadow=0;html=1;fontColor=#FFFFFF;" vertex="1" parent="1">
          <mxGeometry x="318.5" y="1006.5" width="120" height="40" as="geometry" />
        </mxCell>
        <mxCell id="4GYAZwL1Yk9UIPvbFbgs-1549" value="Auto Tuning&lt;br&gt;(AutoTVM)" style="rounded=1;fillColor=#a29dc5;strokeColor=none;strokeWidth=3;shadow=0;html=1;fontColor=#FFFFFF;" vertex="1" parent="1">
          <mxGeometry x="140" y="1046.5" width="120" height="40" as="geometry" />
        </mxCell>
        <mxCell id="4GYAZwL1Yk9UIPvbFbgs-1550" value="" style="edgeStyle=none;endArrow=none;strokeWidth=3;strokeColor=#A29DC5;html=1;entryX=0;entryY=0.5;entryDx=0;entryDy=0;exitX=0.5;exitY=1;exitDx=0;exitDy=0;" edge="1" parent="1" source="4GYAZwL1Yk9UIPvbFbgs-1553" target="4GYAZwL1Yk9UIPvbFbgs-1548">
          <mxGeometry x="-1649.5" y="-161.54000000000002" width="100" height="100" as="geometry">
            <mxPoint x="38.5" y="1031.96" as="sourcePoint" />
            <mxPoint x="142" y="1188.96" as="targetPoint" />
          </mxGeometry>
        </mxCell>
        <mxCell id="4GYAZwL1Yk9UIPvbFbgs-1551" value="" style="edgeStyle=none;endArrow=none;strokeWidth=3;strokeColor=#A29DC5;html=1;entryX=0.5;entryY=0;entryDx=0;entryDy=0;exitX=0.5;exitY=1;exitDx=0;exitDy=0;" edge="1" parent="1" source="4GYAZwL1Yk9UIPvbFbgs-1553" target="4GYAZwL1Yk9UIPvbFbgs-1549">
          <mxGeometry x="-1639.5" y="-151.54000000000002" width="100" height="100" as="geometry">
            <mxPoint x="48.5" y="1041.96" as="sourcePoint" />
            <mxPoint x="152" y="1198.96" as="targetPoint" />
          </mxGeometry>
        </mxCell>
        <mxCell id="4GYAZwL1Yk9UIPvbFbgs-1552" value="BackEnd" style="rounded=1;fillColor=#a29dc5;strokeColor=none;strokeWidth=3;shadow=0;html=1;fontColor=#FFFFFF;" vertex="1" parent="1">
          <mxGeometry x="100" y="906.5" width="120" height="40" as="geometry" />
        </mxCell>
        <mxCell id="4GYAZwL1Yk9UIPvbFbgs-1553" value="Parameter&lt;br&gt;Searching" style="rounded=1;fillColor=#a29dc5;strokeColor=none;strokeWidth=3;shadow=0;html=1;fontColor=#FFFFFF;" vertex="1" parent="1">
          <mxGeometry x="238.5" y="940" width="120" height="40" as="geometry" />
        </mxCell>
        <mxCell id="4GYAZwL1Yk9UIPvbFbgs-1554" value="" style="edgeStyle=none;endArrow=none;strokeWidth=3;strokeColor=#A29DC5;html=1;entryX=0;entryY=0.75;entryDx=0;entryDy=0;exitX=0.5;exitY=1;exitDx=0;exitDy=0;" edge="1" parent="1" source="4GYAZwL1Yk9UIPvbFbgs-1552" target="4GYAZwL1Yk9UIPvbFbgs-1553">
          <mxGeometry x="-1639.5" y="-151.54000000000002" width="100" height="100" as="geometry">
            <mxPoint x="88.5" y="1021.96" as="sourcePoint" />
            <mxPoint x="167" y="1043.46" as="targetPoint" />
          </mxGeometry>
        </mxCell>
        <mxCell id="4GYAZwL1Yk9UIPvbFbgs-1555" value="" style="edgeStyle=none;endArrow=none;strokeWidth=3;strokeColor=#A29DC5;html=1;entryX=0.5;entryY=0;entryDx=0;entryDy=0;exitX=0.004;exitY=0.577;exitDx=0;exitDy=0;exitPerimeter=0;" edge="1" parent="1" source="1516" target="4GYAZwL1Yk9UIPvbFbgs-1552">
          <mxGeometry x="-1629.5" y="-141.54000000000002" width="100" height="100" as="geometry">
            <mxPoint x="98.5" y="1031.96" as="sourcePoint" />
            <mxPoint x="177" y="1053.46" as="targetPoint" />
          </mxGeometry>
        </mxCell>
        <mxCell id="4GYAZwL1Yk9UIPvbFbgs-1556" value="Let binding based&lt;br&gt;IR" style="rounded=1;fillColor=#a29dc5;strokeColor=none;strokeWidth=3;shadow=0;html=1;fontColor=#FFFFFF;" vertex="1" parent="1">
          <mxGeometry x="-360" y="590" width="120" height="40" as="geometry" />
        </mxCell>
        <mxCell id="4GYAZwL1Yk9UIPvbFbgs-1557" value="" style="edgeStyle=none;endArrow=none;strokeWidth=3;strokeColor=#A29DC5;html=1;entryX=1;entryY=0.5;entryDx=0;entryDy=0;exitX=0;exitY=0.75;exitDx=0;exitDy=0;" edge="1" parent="1" source="4GYAZwL1Yk9UIPvbFbgs-1558" target="4GYAZwL1Yk9UIPvbFbgs-1556">
          <mxGeometry x="-1488" y="-293.5" width="100" height="100" as="geometry">
            <mxPoint x="70" y="660" as="sourcePoint" />
            <mxPoint x="-31.5" y="671.5" as="targetPoint" />
          </mxGeometry>
        </mxCell>
        <mxCell id="4GYAZwL1Yk9UIPvbFbgs-1558" value="Graph&lt;br&gt;Presentation" style="rounded=1;fillColor=#a29dc5;strokeColor=none;strokeWidth=3;shadow=0;html=1;fontColor=#FFFFFF;" vertex="1" parent="1">
          <mxGeometry x="-161.5" y="580" width="120" height="40" as="geometry" />
        </mxCell>
        <mxCell id="4GYAZwL1Yk9UIPvbFbgs-1559" value="Computation&lt;br&gt;Presentation" style="rounded=1;fillColor=#a29dc5;strokeColor=none;strokeWidth=3;shadow=0;html=1;fontColor=#FFFFFF;" vertex="1" parent="1">
          <mxGeometry x="-160" y="680" width="120" height="40" as="geometry" />
        </mxCell>
        <mxCell id="4GYAZwL1Yk9UIPvbFbgs-1560" value="" style="edgeStyle=none;endArrow=none;strokeWidth=3;strokeColor=#A29DC5;html=1;entryX=1;entryY=0.5;entryDx=0;entryDy=0;exitX=0;exitY=0.5;exitDx=0;exitDy=0;" edge="1" parent="1" source="1522" target="4GYAZwL1Yk9UIPvbFbgs-1558">
          <mxGeometry x="-1478" y="-283.5" width="100" height="100" as="geometry">
            <mxPoint x="-160" y="676.5" as="sourcePoint" />
            <mxPoint x="-250" y="710" as="targetPoint" />
          </mxGeometry>
        </mxCell>
        <mxCell id="4GYAZwL1Yk9UIPvbFbgs-1561" value="" style="edgeStyle=none;endArrow=none;strokeWidth=3;strokeColor=#A29DC5;html=1;entryX=1;entryY=0.5;entryDx=0;entryDy=0;exitX=0;exitY=0.5;exitDx=0;exitDy=0;" edge="1" parent="1" source="1522" target="4GYAZwL1Yk9UIPvbFbgs-1559">
          <mxGeometry x="-1468" y="-273.5" width="100" height="100" as="geometry">
            <mxPoint x="8.5" y="639.5" as="sourcePoint" />
            <mxPoint x="-40" y="666.5" as="targetPoint" />
          </mxGeometry>
        </mxCell>
        <mxCell id="4GYAZwL1Yk9UIPvbFbgs-1562" value="Function based" style="rounded=1;fillColor=#a29dc5;strokeColor=none;strokeWidth=3;shadow=0;html=1;fontColor=#FFFFFF;" vertex="1" parent="1">
          <mxGeometry x="-360" y="676.5" width="120" height="40" as="geometry" />
        </mxCell>
        <mxCell id="4GYAZwL1Yk9UIPvbFbgs-1563" value="Einstein Notation" style="rounded=1;fillColor=#a29dc5;strokeColor=none;strokeWidth=3;shadow=0;html=1;fontColor=#FFFFFF;" vertex="1" parent="1">
          <mxGeometry x="-90" y="750" width="120" height="40" as="geometry" />
        </mxCell>
        <mxCell id="4GYAZwL1Yk9UIPvbFbgs-1564" value="Lambda Expression" style="rounded=1;fillColor=#a29dc5;strokeColor=none;strokeWidth=3;shadow=0;html=1;fontColor=#FFFFFF;" vertex="1" parent="1">
          <mxGeometry x="-251.5" y="760" width="120" height="40" as="geometry" />
        </mxCell>
        <mxCell id="4GYAZwL1Yk9UIPvbFbgs-1565" value="" style="edgeStyle=none;endArrow=none;strokeWidth=3;strokeColor=#A29DC5;html=1;entryX=1;entryY=0.5;entryDx=0;entryDy=0;exitX=0;exitY=0.5;exitDx=0;exitDy=0;" edge="1" parent="1" source="4GYAZwL1Yk9UIPvbFbgs-1559" target="4GYAZwL1Yk9UIPvbFbgs-1562">
          <mxGeometry x="-1478" y="-283.5" width="100" height="100" as="geometry">
            <mxPoint x="-160" y="676.5" as="sourcePoint" />
            <mxPoint x="-250" y="710" as="targetPoint" />
          </mxGeometry>
        </mxCell>
        <mxCell id="4GYAZwL1Yk9UIPvbFbgs-1566" value="" style="edgeStyle=none;endArrow=none;strokeWidth=3;strokeColor=#A29DC5;html=1;entryX=0.5;entryY=0;entryDx=0;entryDy=0;exitX=0.4;exitY=0.963;exitDx=0;exitDy=0;exitPerimeter=0;" edge="1" parent="1" source="4GYAZwL1Yk9UIPvbFbgs-1559" target="4GYAZwL1Yk9UIPvbFbgs-1564">
          <mxGeometry x="-1468" y="-273.5" width="100" height="100" as="geometry">
            <mxPoint x="-150" y="686.5" as="sourcePoint" />
            <mxPoint x="-240" y="720" as="targetPoint" />
          </mxGeometry>
        </mxCell>
        <mxCell id="4GYAZwL1Yk9UIPvbFbgs-1567" value="" style="edgeStyle=none;endArrow=none;strokeWidth=3;strokeColor=#A29DC5;html=1;entryX=0.5;entryY=0;entryDx=0;entryDy=0;exitX=0.5;exitY=1;exitDx=0;exitDy=0;" edge="1" parent="1" source="4GYAZwL1Yk9UIPvbFbgs-1559" target="4GYAZwL1Yk9UIPvbFbgs-1563">
          <mxGeometry x="-1458" y="-263.5" width="100" height="100" as="geometry">
            <mxPoint x="-140" y="696.5" as="sourcePoint" />
            <mxPoint x="-230" y="730" as="targetPoint" />
          </mxGeometry>
        </mxCell>
        <mxCell id="4GYAZwL1Yk9UIPvbFbgs-1568" value="Data Presentation" style="rounded=1;fillColor=#a29dc5;strokeColor=none;strokeWidth=3;shadow=0;html=1;fontColor=#FFFFFF;" vertex="1" parent="1">
          <mxGeometry x="-250" y="440" width="120" height="40" as="geometry" />
        </mxCell>
        <mxCell id="4GYAZwL1Yk9UIPvbFbgs-1569" value="Operator&lt;br&gt;Supported" style="rounded=1;fillColor=#a29dc5;strokeColor=none;strokeWidth=3;shadow=0;html=1;fontColor=#FFFFFF;" vertex="1" parent="1">
          <mxGeometry x="40" y="480" width="120" height="40" as="geometry" />
        </mxCell>
        <mxCell id="4GYAZwL1Yk9UIPvbFbgs-1571" value="Broadcast" style="rounded=1;fillColor=#a29dc5;strokeColor=none;strokeWidth=3;shadow=0;html=1;fontColor=#FFFFFF;" vertex="1" parent="1">
          <mxGeometry x="-160" y="346.5" width="120" height="40" as="geometry" />
        </mxCell>
        <mxCell id="4GYAZwL1Yk9UIPvbFbgs-1572" value="Control flow" style="rounded=1;fillColor=#a29dc5;strokeColor=none;strokeWidth=3;shadow=0;html=1;fontColor=#FFFFFF;" vertex="1" parent="1">
          <mxGeometry x="-30" y="394" width="120" height="40" as="geometry" />
        </mxCell>
        <mxCell id="4GYAZwL1Yk9UIPvbFbgs-1573" value="Derivative" style="rounded=1;fillColor=#a29dc5;strokeColor=none;strokeWidth=3;shadow=0;html=1;fontColor=#FFFFFF;" vertex="1" parent="1">
          <mxGeometry x="40" y="340" width="120" height="40" as="geometry" />
        </mxCell>
        <mxCell id="4GYAZwL1Yk9UIPvbFbgs-1574" value="Customized" style="rounded=1;fillColor=#a29dc5;strokeColor=none;strokeWidth=3;shadow=0;html=1;fontColor=#FFFFFF;" vertex="1" parent="1">
          <mxGeometry x="150" y="394" width="120" height="40" as="geometry" />
        </mxCell>
        <mxCell id="4GYAZwL1Yk9UIPvbFbgs-1575" value="" style="edgeStyle=none;endArrow=none;strokeWidth=3;strokeColor=#A29DC5;html=1;exitX=0.5;exitY=0;exitDx=0;exitDy=0;entryX=0.5;entryY=1;entryDx=0;entryDy=0;" edge="1" parent="1" source="1522" target="4GYAZwL1Yk9UIPvbFbgs-1568">
          <mxGeometry x="-1488" y="-293.5" width="100" height="100" as="geometry">
            <mxPoint x="-151.5" y="610" as="sourcePoint" />
            <mxPoint x="-257.57142857142844" y="560" as="targetPoint" />
          </mxGeometry>
        </mxCell>
        <mxCell id="4GYAZwL1Yk9UIPvbFbgs-1576" value="" style="edgeStyle=none;endArrow=none;strokeWidth=3;strokeColor=#A29DC5;html=1;exitX=0.5;exitY=0;exitDx=0;exitDy=0;entryX=0.5;entryY=1;entryDx=0;entryDy=0;" edge="1" parent="1" source="1522" target="4GYAZwL1Yk9UIPvbFbgs-1569">
          <mxGeometry x="-1478" y="-283.5" width="100" height="100" as="geometry">
            <mxPoint x="-141.5" y="620" as="sourcePoint" />
            <mxPoint x="-247.57142857142844" y="570" as="targetPoint" />
          </mxGeometry>
        </mxCell>
        <mxCell id="4GYAZwL1Yk9UIPvbFbgs-1577" value="" style="edgeStyle=none;endArrow=none;strokeWidth=3;strokeColor=#A29DC5;html=1;exitX=0.5;exitY=0;exitDx=0;exitDy=0;entryX=0.5;entryY=1;entryDx=0;entryDy=0;" edge="1" parent="1" source="4GYAZwL1Yk9UIPvbFbgs-1569" target="4GYAZwL1Yk9UIPvbFbgs-1574">
          <mxGeometry x="-1468" y="-273.5" width="100" height="100" as="geometry">
            <mxPoint x="-131.5" y="630" as="sourcePoint" />
            <mxPoint x="-237.57142857142844" y="580" as="targetPoint" />
          </mxGeometry>
        </mxCell>
        <mxCell id="4GYAZwL1Yk9UIPvbFbgs-1578" value="" style="edgeStyle=none;endArrow=none;strokeWidth=3;strokeColor=#A29DC5;html=1;exitX=0;exitY=0.25;exitDx=0;exitDy=0;entryX=0.5;entryY=1;entryDx=0;entryDy=0;" edge="1" parent="1" source="4GYAZwL1Yk9UIPvbFbgs-1569" target="4GYAZwL1Yk9UIPvbFbgs-1571">
          <mxGeometry x="-1458" y="-263.5" width="100" height="100" as="geometry">
            <mxPoint x="-121.5" y="640" as="sourcePoint" />
            <mxPoint x="-227.57142857142844" y="590" as="targetPoint" />
          </mxGeometry>
        </mxCell>
        <mxCell id="4GYAZwL1Yk9UIPvbFbgs-1579" value="" style="edgeStyle=none;endArrow=none;strokeWidth=3;strokeColor=#A29DC5;html=1;exitX=0.5;exitY=0;exitDx=0;exitDy=0;entryX=0.558;entryY=0.925;entryDx=0;entryDy=0;entryPerimeter=0;" edge="1" parent="1" source="4GYAZwL1Yk9UIPvbFbgs-1569" target="4GYAZwL1Yk9UIPvbFbgs-1572">
          <mxGeometry x="-1448" y="-253.5" width="100" height="100" as="geometry">
            <mxPoint x="-111.5" y="650" as="sourcePoint" />
            <mxPoint x="-217.57142857142844" y="600" as="targetPoint" />
          </mxGeometry>
        </mxCell>
        <mxCell id="4GYAZwL1Yk9UIPvbFbgs-1580" value="" style="edgeStyle=none;endArrow=none;strokeWidth=3;strokeColor=#A29DC5;html=1;exitX=0.5;exitY=0;exitDx=0;exitDy=0;entryX=0.5;entryY=1;entryDx=0;entryDy=0;" edge="1" parent="1" source="4GYAZwL1Yk9UIPvbFbgs-1569" target="4GYAZwL1Yk9UIPvbFbgs-1573">
          <mxGeometry x="-1438" y="-243.5" width="100" height="100" as="geometry">
            <mxPoint x="-101.5" y="660" as="sourcePoint" />
            <mxPoint x="-207.57142857142844" y="610" as="targetPoint" />
          </mxGeometry>
        </mxCell>
        <mxCell id="4GYAZwL1Yk9UIPvbFbgs-1581" value="Placeholder" style="rounded=1;fillColor=#a29dc5;strokeColor=none;strokeWidth=3;shadow=0;html=1;fontColor=#FFFFFF;" vertex="1" parent="1">
          <mxGeometry x="-520" y="360" width="120" height="40" as="geometry" />
        </mxCell>
        <mxCell id="4GYAZwL1Yk9UIPvbFbgs-1582" value="Dynamic Shape&lt;br&gt;Representation" style="rounded=1;fillColor=#a29dc5;strokeColor=none;strokeWidth=3;shadow=0;html=1;fontColor=#FFFFFF;" vertex="1" parent="1">
          <mxGeometry x="-430" y="295.5" width="120" height="40" as="geometry" />
        </mxCell>
        <mxCell id="4GYAZwL1Yk9UIPvbFbgs-1583" value="Data Layout" style="rounded=1;fillColor=#a29dc5;strokeColor=none;strokeWidth=3;shadow=0;html=1;fontColor=#FFFFFF;" vertex="1" parent="1">
          <mxGeometry x="-340" y="354" width="120" height="40" as="geometry" />
        </mxCell>
        <mxCell id="4GYAZwL1Yk9UIPvbFbgs-1584" value="Bound&amp;nbsp;&lt;br&gt;Inference" style="rounded=1;fillColor=#a29dc5;strokeColor=none;strokeWidth=3;shadow=0;html=1;fontColor=#FFFFFF;" vertex="1" parent="1">
          <mxGeometry x="-251.5" y="295.5" width="120" height="40" as="geometry" />
        </mxCell>
        <mxCell id="4GYAZwL1Yk9UIPvbFbgs-1585" value="" style="edgeStyle=none;endArrow=none;strokeWidth=3;strokeColor=#A29DC5;html=1;exitX=0;exitY=0.5;exitDx=0;exitDy=0;entryX=0.5;entryY=1;entryDx=0;entryDy=0;" edge="1" parent="1" source="4GYAZwL1Yk9UIPvbFbgs-1568" target="4GYAZwL1Yk9UIPvbFbgs-1581">
          <mxGeometry x="-1488" y="-293.5" width="100" height="100" as="geometry">
            <mxPoint x="-151.5" y="610" as="sourcePoint" />
            <mxPoint x="-257.57142857142844" y="560" as="targetPoint" />
          </mxGeometry>
        </mxCell>
        <mxCell id="4GYAZwL1Yk9UIPvbFbgs-1586" value="" style="edgeStyle=none;endArrow=none;strokeWidth=3;strokeColor=#A29DC5;html=1;exitX=0;exitY=0.5;exitDx=0;exitDy=0;entryX=0.2;entryY=0.913;entryDx=0;entryDy=0;entryPerimeter=0;" edge="1" parent="1" source="4GYAZwL1Yk9UIPvbFbgs-1568" target="4GYAZwL1Yk9UIPvbFbgs-1582">
          <mxGeometry x="-1478" y="-283.5" width="100" height="100" as="geometry">
            <mxPoint x="-141.5" y="620" as="sourcePoint" />
            <mxPoint x="-247.57142857142844" y="570" as="targetPoint" />
          </mxGeometry>
        </mxCell>
        <mxCell id="4GYAZwL1Yk9UIPvbFbgs-1587" value="" style="edgeStyle=none;endArrow=none;strokeWidth=3;strokeColor=#A29DC5;html=1;exitX=0.317;exitY=0.075;exitDx=0;exitDy=0;entryX=0.558;entryY=0.9;entryDx=0;entryDy=0;entryPerimeter=0;exitPerimeter=0;" edge="1" parent="1" source="4GYAZwL1Yk9UIPvbFbgs-1568" target="4GYAZwL1Yk9UIPvbFbgs-1583">
          <mxGeometry x="-1468" y="-273.5" width="100" height="100" as="geometry">
            <mxPoint x="-131.5" y="630" as="sourcePoint" />
            <mxPoint x="-237.57142857142844" y="580" as="targetPoint" />
          </mxGeometry>
        </mxCell>
        <mxCell id="4GYAZwL1Yk9UIPvbFbgs-1588" value="" style="edgeStyle=none;endArrow=none;strokeWidth=3;strokeColor=#A29DC5;html=1;exitX=0.5;exitY=0;exitDx=0;exitDy=0;entryX=0.429;entryY=0.888;entryDx=0;entryDy=0;entryPerimeter=0;" edge="1" parent="1" source="4GYAZwL1Yk9UIPvbFbgs-1568" target="4GYAZwL1Yk9UIPvbFbgs-1584">
          <mxGeometry x="-1458" y="-263.5" width="100" height="100" as="geometry">
            <mxPoint x="-121.5" y="640" as="sourcePoint" />
            <mxPoint x="-227.57142857142844" y="590" as="targetPoint" />
          </mxGeometry>
        </mxCell>
        <mxCell id="4GYAZwL1Yk9UIPvbFbgs-1589" value="Halide Based&lt;br&gt;IR" style="rounded=1;fillColor=#a29dc5;strokeColor=none;strokeWidth=3;shadow=0;html=1;fontColor=#FFFFFF;" vertex="1" parent="1">
          <mxGeometry x="-220" y="827" width="120" height="40" as="geometry" />
        </mxCell>
        <mxCell id="4GYAZwL1Yk9UIPvbFbgs-1590" value="Polyhedral Based&lt;br&gt;IR" style="rounded=1;fillColor=#a29dc5;strokeColor=none;strokeWidth=3;shadow=0;html=1;fontColor=#FFFFFF;" vertex="1" parent="1">
          <mxGeometry x="-220" y="880" width="120" height="40" as="geometry" />
        </mxCell>
        <mxCell id="4GYAZwL1Yk9UIPvbFbgs-1591" value="" style="edgeStyle=none;endArrow=none;strokeWidth=3;strokeColor=#A29DC5;html=1;entryX=1;entryY=0.5;entryDx=0;entryDy=0;" edge="1" parent="1" target="4GYAZwL1Yk9UIPvbFbgs-1589">
          <mxGeometry x="-1458" y="-263.5" width="100" height="100" as="geometry">
            <mxPoint y="860" as="sourcePoint" />
            <mxPoint x="-181.5" y="770" as="targetPoint" />
          </mxGeometry>
        </mxCell>
        <mxCell id="4GYAZwL1Yk9UIPvbFbgs-1592" value="" style="edgeStyle=none;endArrow=none;strokeWidth=3;strokeColor=#A29DC5;html=1;entryX=1;entryY=0.5;entryDx=0;entryDy=0;exitX=0;exitY=0.5;exitDx=0;exitDy=0;" edge="1" parent="1" source="1529" target="4GYAZwL1Yk9UIPvbFbgs-1590">
          <mxGeometry x="-1448" y="-253.5" width="100" height="100" as="geometry">
            <mxPoint x="-92" y="738.52" as="sourcePoint" />
            <mxPoint x="-171.5" y="780" as="targetPoint" />
          </mxGeometry>
        </mxCell>
        <mxCell id="4GYAZwL1Yk9UIPvbFbgs-1593" value="Other Unique&lt;br&gt;IR (MLIR ...)" style="rounded=1;fillColor=#a29dc5;strokeColor=none;strokeWidth=3;shadow=0;html=1;fontColor=#FFFFFF;" vertex="1" parent="1">
          <mxGeometry x="-220" y="931.5" width="120" height="40" as="geometry" />
        </mxCell>
        <mxCell id="4GYAZwL1Yk9UIPvbFbgs-1594" value="" style="edgeStyle=none;endArrow=none;strokeWidth=3;strokeColor=#A29DC5;html=1;entryX=1;entryY=0.5;entryDx=0;entryDy=0;exitX=0;exitY=0.5;exitDx=0;exitDy=0;" edge="1" parent="1" source="1529" target="4GYAZwL1Yk9UIPvbFbgs-1593">
          <mxGeometry x="-1438" y="-243.5" width="100" height="100" as="geometry">
            <mxPoint x="8.5" y="876.5" as="sourcePoint" />
            <mxPoint x="-90" y="910" as="targetPoint" />
          </mxGeometry>
        </mxCell>
        <mxCell id="4GYAZwL1Yk9UIPvbFbgs-1595" value="Compilation&lt;br&gt;Scheme" style="rounded=1;fillColor=#a29dc5;strokeColor=none;strokeWidth=3;shadow=0;html=1;fontColor=#FFFFFF;" vertex="1" parent="1">
          <mxGeometry x="60" y="776.25" width="120" height="40" as="geometry" />
        </mxCell>
        <mxCell id="4GYAZwL1Yk9UIPvbFbgs-1596" value="JIT" style="rounded=1;fillColor=#a29dc5;strokeColor=none;strokeWidth=3;shadow=0;html=1;fontColor=#FFFFFF;" vertex="1" parent="1">
          <mxGeometry x="12" y="696.5" width="120" height="40" as="geometry" />
        </mxCell>
        <mxCell id="4GYAZwL1Yk9UIPvbFbgs-1597" value="AOT" style="rounded=1;fillColor=#a29dc5;strokeColor=none;strokeWidth=3;shadow=0;html=1;fontColor=#FFFFFF;" vertex="1" parent="1">
          <mxGeometry x="140" y="696.5" width="120" height="40" as="geometry" />
        </mxCell>
        <mxCell id="4GYAZwL1Yk9UIPvbFbgs-1598" value="" style="edgeStyle=none;endArrow=none;strokeWidth=3;strokeColor=#A29DC5;html=1;entryX=0.322;entryY=0.943;entryDx=0;entryDy=0;entryPerimeter=0;exitX=0.5;exitY=0;exitDx=0;exitDy=0;" edge="1" parent="1" source="4GYAZwL1Yk9UIPvbFbgs-1595" target="4GYAZwL1Yk9UIPvbFbgs-1596">
          <mxGeometry x="-1448" y="-253.5" width="100" height="100" as="geometry">
            <mxPoint x="10" y="870" as="sourcePoint" />
            <mxPoint x="-90" y="857" as="targetPoint" />
          </mxGeometry>
        </mxCell>
        <mxCell id="4GYAZwL1Yk9UIPvbFbgs-1599" value="" style="edgeStyle=none;endArrow=none;strokeWidth=3;strokeColor=#A29DC5;html=1;entryX=0.5;entryY=1;entryDx=0;entryDy=0;exitX=0.655;exitY=0.109;exitDx=0;exitDy=0;exitPerimeter=0;" edge="1" parent="1" source="4GYAZwL1Yk9UIPvbFbgs-1595" target="4GYAZwL1Yk9UIPvbFbgs-1597">
          <mxGeometry x="-1438" y="-243.5" width="100" height="100" as="geometry">
            <mxPoint x="20" y="880" as="sourcePoint" />
            <mxPoint x="-80" y="867" as="targetPoint" />
          </mxGeometry>
        </mxCell>
        <mxCell id="4GYAZwL1Yk9UIPvbFbgs-1600" value="" style="edgeStyle=none;endArrow=none;strokeWidth=3;strokeColor=#A29DC5;html=1;entryX=0.5;entryY=1;entryDx=0;entryDy=0;" edge="1" parent="1" target="4GYAZwL1Yk9UIPvbFbgs-1595">
          <mxGeometry x="-1448" y="-253.5" width="100" height="100" as="geometry">
            <mxPoint x="60" y="850" as="sourcePoint" />
            <mxPoint x="-90" y="857" as="targetPoint" />
          </mxGeometry>
        </mxCell>
      </root>
    </mxGraphModel>
  </diagram>
</mxfile>
